<?xml version="1.0" encoding="utf-8"?><svg viewBox="0 0 90 90" xmlns="http://www.w3.org/2000/svg" xmlns:xlink="http://www.w3.org/1999/xlink"><style>:root>svg{display:none}:root>svg:target{display:block}</style><svg  viewBox="0 0 29 29" id="Instagram_black" xmlns="http://www.w3.org/2000/svg"><path fill-rule="evenodd" clip-rule="evenodd" d="M14.5 0C6.492 0 0 6.492 0 14.5S6.492 29 14.5 29 29 22.508 29 14.5 22.508 0 14.5 0zm-3.188 6.813c.825-.037 1.088-.046 3.189-.046h-.003c2.101 0 2.364.009 3.189.046.823.038 1.385.168 1.878.36.51.197.94.461 1.37.891.43.43.694.862.892 1.37.19.492.32 1.054.36 1.877.037.825.046 1.089.046 3.19 0 2.1-.01 2.362-.046 3.187-.04.823-.17 1.385-.36 1.877-.198.509-.462.94-.892 1.37-.43.43-.86.695-1.37.893-.491.19-1.054.321-1.877.359-.825.037-1.088.046-3.188.046s-2.364-.009-3.189-.046c-.823-.038-1.385-.168-1.877-.36a3.786 3.786 0 01-1.37-.892 3.789 3.789 0 01-.891-1.37c-.191-.492-.322-1.054-.36-1.877-.037-.825-.046-1.088-.046-3.188s.01-2.364.046-3.189c.037-.823.168-1.385.36-1.877.198-.508.462-.94.892-1.37.43-.43.861-.694 1.37-.891.492-.192 1.054-.322 1.877-.36z"/><path fill-rule="evenodd" clip-rule="evenodd" d="M13.807 8.16h.694c2.065 0 2.31.008 3.125.045.754.034 1.163.16 1.435.266.361.14.619.308.89.578.27.271.437.529.578.89.106.272.232.681.266 1.435.037.815.045 1.06.045 3.124s-.008 2.309-.045 3.124c-.034.754-.16 1.163-.266 1.436a2.39 2.39 0 01-.579.888c-.27.27-.527.438-.889.578-.272.107-.681.232-1.435.267-.816.037-1.06.045-3.125.045s-2.31-.008-3.125-.045c-.754-.035-1.163-.16-1.436-.267a2.397 2.397 0 01-.89-.578 2.397 2.397 0 01-.578-.889c-.106-.272-.232-.681-.267-1.435-.037-.816-.044-1.06-.044-3.126 0-2.065.007-2.309.044-3.124.035-.754.16-1.163.267-1.436.14-.36.308-.618.578-.889a2.4 2.4 0 01.89-.579c.272-.106.682-.232 1.436-.266.713-.033.99-.042 2.431-.044v.002zm4.822 1.284a.928.928 0 100 1.857.928.928 0 000-1.857zm-8.1 5.056a3.972 3.972 0 117.943 0 3.972 3.972 0 01-7.943 0z"/><path d="M14.5 11.922a2.578 2.578 0 110 5.156 2.578 2.578 0 010-5.156z"/></svg><svg  viewBox="0 0 89 89" id="delivery" xmlns="http://www.w3.org/2000/svg"><path fill-rule="evenodd" clip-rule="evenodd" d="M60.75 25.958l6.832 13.665 10.293 6.862v12.848h-4.341c-1.528-4.32-5.648-7.416-10.492-7.416-4.844 0-8.965 3.095-10.492 7.416h-16.1c-1.527-4.32-5.648-7.416-10.492-7.416-4.843 0-8.964 3.095-10.492 7.416h-4.341V25.958H60.75zM77.875 66.75h-4.341c-1.528 4.32-5.648 7.417-10.492 7.417-4.844 0-8.965-3.096-10.492-7.417h-16.1c-1.527 4.32-5.648 7.417-10.492 7.417-4.843 0-8.964-3.096-10.492-7.417h-4.341a7.417 7.417 0 01-7.417-7.417V25.958a7.417 7.417 0 017.417-7.416H60.75a7.417 7.417 0 016.633 4.1l5.952 11.902 11.957 7.971v16.818a7.417 7.417 0 01-7.417 7.417zm-48.208-3.708a3.708 3.708 0 11-7.417 0 3.708 3.708 0 017.417 0zm37.083 0a3.708 3.708 0 11-7.417 0 3.708 3.708 0 017.417 0z"/></svg><svg  viewBox="0 0 30 30" id="instagram" xmlns="http://www.w3.org/2000/svg"><path fill-rule="evenodd" clip-rule="evenodd" d="M20 2.5H10A7.5 7.5 0 002.5 10v10a7.5 7.5 0 007.5 7.5h10a7.5 7.5 0 007.5-7.5V10A7.5 7.5 0 0020 2.5zM5 10a5 5 0 015-5h10a5 5 0 015 5v10a5 5 0 01-5 5H10a5 5 0 01-5-5V10zm10 11.25a6.25 6.25 0 110-12.5 6.25 6.25 0 010 12.5zm0-2.5a3.75 3.75 0 100-7.5 3.75 3.75 0 000 7.5zm7.5-10a1.25 1.25 0 11-2.5 0 1.25 1.25 0 012.5 0z" fill="#fff"/></svg><svg  viewBox="0 0 31 29" id="mail_ru_black" xmlns="http://www.w3.org/2000/svg"><g fill-rule="evenodd" clip-rule="evenodd"><path d="M15.058 0C6.742 0 0 6.492 0 14.5S6.742 29 15.058 29c8.316 0 15.057-6.492 15.057-14.5S23.374 0 15.058 0zM6.274 14.476c0-4.65 3.94-8.434 8.784-8.434 4.843 0 8.783 3.783 8.783 8.434a7.18 7.18 0 01-.185 1.727l-.002.01c0 .001-.064.248-.099.355a3.178 3.178 0 01-1.136 1.606 3.047 3.047 0 01-2.02.569 2.877 2.877 0 01-2.194-1.26 4.501 4.501 0 01-3.147 1.26c-2.45 0-4.443-1.915-4.443-4.267 0-2.352 1.993-4.266 4.443-4.266 2.45 0 4.442 1.914 4.442 4.266v1.375c.004.803.565 1.13 1.044 1.168.477.035 1.11-.231 1.332-1.102.109-.477.164-.962.164-1.441 0-3.697-3.132-6.705-6.982-6.705s-6.983 3.008-6.983 6.705 3.132 6.705 6.983 6.705c1.34 0 2.643-.367 3.77-1.063l.02-.012 1.183 1.32-.026.017a8.989 8.989 0 01-4.947 1.467c-4.844 0-8.784-3.783-8.784-8.434z"/><path d="M17.7 14.476c0 1.399-1.186 2.537-2.642 2.537-1.457 0-2.643-1.138-2.643-2.537s1.186-2.537 2.643-2.537c1.456 0 2.642 1.138 2.642 2.537z"/></g></svg><svg  viewBox="0 0 78 78" id="pencil-create" xmlns="http://www.w3.org/2000/svg"><path fill-rule="evenodd" clip-rule="evenodd" d="M53.421 6.5c2.128 0 4.168.85 5.658 2.351L69.157 18.93a8.001 8.001 0 010 11.315L32.362 67.027c-2.27 2.619-5.488 4.228-9.175 4.48H6.5v-3.25l.01-13.698c.277-3.427 1.87-6.614 4.301-8.755L47.76 8.855A7.982 7.982 0 0153.421 6.5zM22.958 65.016c1.736-.123 3.352-.931 4.65-2.416l24.576-24.576-12.201-12.202-24.72 24.714C13.945 51.701 13.13 53.33 13 54.82v10.19l9.958.006zm21.621-43.79l12.202 12.202 7.78-7.78a1.501 1.501 0 000-2.123L54.474 13.438a1.483 1.483 0 00-2.105 0l-7.79 7.788z"/></svg><svg  viewBox="0 0 81 81" id="rocket" xmlns="http://www.w3.org/2000/svg"><path fill-rule="evenodd" clip-rule="evenodd" d="M23.625 27v11.813l-13.5 10.124V67.5h13.5a6.75 6.75 0 006.75 6.75h6.75v3.375h6.75V74.25h6.75a6.75 6.75 0 006.745-6.48h13.91V49.208l-13.905-10.43V27c0-10.652-6.458-23.625-16.875-23.625S23.625 16.348 23.625 27zm20.25 40.5h6.75V27c0-7.4-4.717-16.875-10.125-16.875S30.375 19.599 30.375 27v40.5h6.75V47.25h6.75V67.5zm-27-15.188l6.75-5.062v13.5h-6.75v-8.438zm40.5 8.438v-13.5l6.75 5.063v8.437h-6.75zM40.5 37.125a6.75 6.75 0 110-13.5 6.75 6.75 0 010 13.5z" /></svg><svg  viewBox="0 0 90 90" id="watch" xmlns="http://www.w3.org/2000/svg"><path fill-rule="evenodd" clip-rule="evenodd" d="M56.25 3.75h-22.5a3.75 3.75 0 00-3.606 2.72l-4.446 15.564C19.157 27.537 15 35.783 15 45s4.157 17.463 10.698 22.966l4.446 15.564a3.75 3.75 0 003.606 2.72h22.5a3.75 3.75 0 003.606-2.72l4.446-15.564c5.64-4.745 9.507-11.529 10.466-19.216h3.982v-7.5h-3.982c-.959-7.687-4.826-14.471-10.466-19.216L59.856 6.47a3.75 3.75 0 00-3.606-2.72zM45 15c3.498 0 6.857.599 9.978 1.7l-1.557-5.45H36.58l-1.557 5.45C38.143 15.598 41.502 15 45 15zm-8.421 63.75l-1.557-5.45C38.143 74.402 41.502 75 45 75c3.498 0 6.857-.599 9.978-1.7l-1.557 5.45H36.58zM67.5 45c0 12.426-10.074 22.5-22.5 22.5S22.5 57.426 22.5 45 32.574 22.5 45 22.5 67.5 32.574 67.5 45zm-18.75-3.75h7.5v7.5h-15V30h7.5v11.25z"/></svg><svg  viewBox="0 0 31 29" id="whatsapp_black" xmlns="http://www.w3.org/2000/svg"><path fill-rule="evenodd" clip-rule="evenodd" d="M0 14.5C0 22.508 6.732 29 15.037 29s15.037-6.492 15.037-14.5S23.342 0 15.037 0 0 6.492 0 14.5zm24.474-.555c-.002 4.753-4.012 8.62-8.941 8.622h-.004a9.197 9.197 0 01-4.273-1.05l-4.74 1.2 1.269-4.468a8.371 8.371 0 01-1.194-4.31c.002-4.755 4.013-8.622 8.942-8.622 2.391 0 4.636.899 6.325 2.528 1.688 1.63 2.617 3.796 2.616 6.1z"/><path fill-rule="evenodd" clip-rule="evenodd" d="M8.663 20.668l2.813-.711.271.155a7.63 7.63 0 003.783.999h.003c4.096 0 7.43-3.215 7.431-7.166.001-1.915-.771-3.716-2.174-5.07-1.403-1.355-3.27-2.101-5.254-2.102-4.1 0-7.434 3.215-7.435 7.166 0 1.354.392 2.673 1.136 3.814l.177.27-.751 2.645zm11.068-4.867c.156.073.261.122.306.194.056.09.056.522-.13 1.025-.186.503-1.079.962-1.508 1.024a3.171 3.171 0 01-1.407-.085c-.325-.1-.74-.232-1.274-.454-2.094-.872-3.51-2.83-3.777-3.2l-.04-.053-.001-.002c-.119-.152-.91-1.172-.91-2.227 0-.992.505-1.512.737-1.752l.044-.045a.835.835 0 01.596-.27 9.19 9.19 0 01.478.009c.13-.001.293-.002.453.369l.247.577c.192.452.404.95.442 1.023.056.107.093.233.018.377-.01.022-.021.042-.031.061-.056.11-.097.191-.192.298l-.115.133c-.076.09-.153.18-.22.245-.112.107-.228.224-.098.44.13.215.579.92 1.243 1.492a5.81 5.81 0 001.649 1.005l.147.064c.224.108.354.09.484-.054.13-.143.559-.629.708-.844.149-.216.298-.18.503-.108.204.072 1.303.593 1.526.7l.122.058z"/></svg></svg>