<svg width="89" height="89" viewBox="0 0 89 89" fill="none" xmlns="http://www.w3.org/2000/svg">
<g id="24 / shopping / delivery">
<path id="icon" fill-rule="evenodd" clip-rule="evenodd" d="M60.7498 25.9583L67.5819 39.6225L77.875 46.4846V59.3333H73.5337C72.0065 55.0124 67.8856 51.9166 63.0417 51.9166C58.1978 51.9166 54.077 55.0124 52.5497 59.3333H36.4503C34.9231 55.0124 30.8023 51.9166 25.9584 51.9166C21.1145 51.9166 16.9936 55.0124 15.4664 59.3333H11.125V25.9583H60.7498ZM77.875 66.75H73.5337C72.0065 71.0709 67.8856 74.1666 63.0417 74.1666C58.1978 74.1666 54.077 71.0709 52.5497 66.75H36.4503C34.9231 71.0709 30.8023 74.1666 25.9584 74.1666C21.1145 74.1666 16.9936 71.0709 15.4664 66.75H11.125C7.02893 66.75 3.70837 63.4294 3.70837 59.3333V25.9583C3.70837 21.8622 7.02893 18.5416 11.125 18.5416H60.7498C63.559 18.5416 66.1272 20.1288 67.3835 22.6415L73.3348 34.544L85.2917 42.5153V59.3333C85.2917 63.4294 81.9711 66.75 77.875 66.75ZM29.6667 63.0416C29.6667 65.0897 28.0064 66.75 25.9584 66.75C23.9103 66.75 22.25 65.0897 22.25 63.0416C22.25 60.9936 23.9103 59.3333 25.9584 59.3333C28.0064 59.3333 29.6667 60.9936 29.6667 63.0416ZM66.75 63.0416C66.75 65.0897 65.0898 66.75 63.0417 66.75C60.9937 66.75 59.3334 65.0897 59.3334 63.0416C59.3334 60.9936 60.9937 59.3333 63.0417 59.3333C65.0898 59.3333 66.75 60.9936 66.75 63.0416Z" fill="black"/>
</g>
</svg>
