<svg width="30" height="30" viewBox="0 0 30 30" fill="none" xmlns="http://www.w3.org/2000/svg">
<g id="24 / symbols / instagram">
<path id="icon" fill-rule="evenodd" clip-rule="evenodd" d="M20 2.5H10C5.85786 2.5 2.5 5.85786 2.5 10V20C2.5 24.1421 5.85786 27.5 10 27.5H20C24.1421 27.5 27.5 24.1421 27.5 20V10C27.5 5.85786 24.1421 2.5 20 2.5ZM5 10C5 7.23858 7.23858 5 10 5H20C22.7614 5 25 7.23858 25 10V20C25 22.7614 22.7614 25 20 25H10C7.23858 25 5 22.7614 5 20V10ZM15 21.25C11.5482 21.25 8.75 18.4518 8.75 15C8.75 11.5482 11.5482 8.75 15 8.75C18.4518 8.75 21.25 11.5482 21.25 15C21.25 18.4518 18.4518 21.25 15 21.25ZM15 18.75C17.0711 18.75 18.75 17.0711 18.75 15C18.75 12.9289 17.0711 11.25 15 11.25C12.9289 11.25 11.25 12.9289 11.25 15C11.25 17.0711 12.9289 18.75 15 18.75ZM22.5 8.75C22.5 9.44036 21.9404 10 21.25 10C20.5596 10 20 9.44036 20 8.75C20 8.05964 20.5596 7.5 21.25 7.5C21.9404 7.5 22.5 8.05964 22.5 8.75Z" fill="white"/>
</g>
</svg>
