<svg width="29" height="29" viewBox="0 0 29 29" fill="none" xmlns="http://www.w3.org/2000/svg">
<path fill-rule="evenodd" clip-rule="evenodd" d="M14.5 0C6.49187 0 0 6.49187 0 14.5C0 22.5081 6.49187 29 14.5 29C22.5081 29 29 22.5081 29 14.5C29 6.49187 22.5081 0 14.5 0ZM11.312 6.81341C12.1369 6.77587 12.4004 6.76669 14.5007 6.76669H14.4983C16.5992 6.76669 16.8618 6.77587 17.6867 6.81341C18.51 6.85111 19.0723 6.98145 19.5653 7.17269C20.0744 7.37006 20.5046 7.63428 20.9347 8.06445C21.3649 8.4943 21.6291 8.92576 21.8273 9.43439C22.0174 9.92611 22.1479 10.4881 22.1866 11.3114C22.2236 12.1363 22.2333 12.3998 22.2333 14.5001C22.2333 16.6004 22.2236 16.8633 22.1866 17.6882C22.1479 18.5112 22.0174 19.0733 21.8273 19.5652C21.6291 20.0736 21.3649 20.5051 20.9347 20.9349C20.5051 21.3651 20.0742 21.63 19.5658 21.8275C19.0737 22.0188 18.5111 22.1491 17.6878 22.1868C16.8629 22.2243 16.6002 22.2335 14.4997 22.2335C12.3996 22.2335 12.1362 22.2243 11.3113 22.1868C10.4882 22.1491 9.92607 22.0188 9.43403 21.8275C8.92572 21.63 8.49426 21.3651 8.06457 20.9349C7.63456 20.5051 7.37033 20.0736 7.17265 19.565C6.98157 19.0733 6.85123 18.5113 6.81337 17.688C6.77599 16.8631 6.76664 16.6004 6.76664 14.5001C6.76664 12.3998 6.77631 12.1361 6.81321 11.3112C6.85026 10.4882 6.98076 9.92611 7.17249 9.43423C7.37066 8.92576 7.63488 8.4943 8.06505 8.06445C8.4949 7.63444 8.92636 7.37022 9.43499 7.17269C9.92671 6.98145 10.4887 6.85111 11.312 6.81341Z" fill="black"/>
<path fill-rule="evenodd" clip-rule="evenodd" d="M13.807 8.16014C13.9417 8.15993 14.0866 8.15999 14.243 8.16006L14.5007 8.16014C16.5656 8.16014 16.8103 8.16755 17.6257 8.2046C18.3797 8.23908 18.7889 8.36507 19.0615 8.47092C19.4224 8.61109 19.6797 8.77865 19.9502 9.04932C20.2209 9.31999 20.3884 9.57777 20.5289 9.93866C20.6348 10.2109 20.7609 10.6202 20.7953 11.3742C20.8323 12.1894 20.8404 12.4343 20.8404 14.4982C20.8404 16.562 20.8323 16.8069 20.7953 17.6221C20.7608 18.3761 20.6348 18.7854 20.5289 19.0576C20.3888 19.4185 20.2209 19.6755 19.9502 19.946C19.6795 20.2167 19.4226 20.3842 19.0615 20.5244C18.7892 20.6308 18.3797 20.7564 17.6257 20.7909C16.8105 20.828 16.5656 20.836 14.5007 20.836C12.4358 20.836 12.191 20.828 11.3758 20.7909C10.6218 20.7561 10.2126 20.6301 9.9398 20.5243C9.5789 20.3841 9.32112 20.2165 9.05045 19.9459C8.77978 19.6752 8.61223 19.4181 8.47174 19.057C8.36589 18.7847 8.23973 18.3755 8.20542 17.6215C8.16836 16.8063 8.16095 16.5614 8.16095 14.4962C8.16095 12.4311 8.16836 12.1875 8.20542 11.3722C8.2399 10.6182 8.36589 10.209 8.47174 9.93641C8.6119 9.57551 8.77978 9.31773 9.05045 9.04706C9.32112 8.77639 9.5789 8.60884 9.9398 8.46835C10.2124 8.36201 10.6218 8.23634 11.3758 8.2017C12.0892 8.16948 12.3657 8.15981 13.807 8.1582V8.16014ZM18.6288 9.44421C18.1165 9.44421 17.7008 9.8594 17.7008 10.3719C17.7008 10.8842 18.1165 11.2999 18.6288 11.2999C19.1412 11.2999 19.5568 10.8842 19.5568 10.3719C19.5568 9.85956 19.1412 9.44389 18.6288 9.44389V9.44421ZM10.5293 14.4999C10.5293 12.3067 12.3074 10.5286 14.5006 10.5285C16.6938 10.5285 18.4715 12.3067 18.4715 14.4999C18.4715 16.6931 16.6939 18.4705 14.5007 18.4705C12.3075 18.4705 10.5293 16.6931 10.5293 14.4999Z" fill="black"/>
<path d="M14.5007 11.9224C15.9243 11.9224 17.0785 13.0764 17.0785 14.5002C17.0785 15.9238 15.9243 17.078 14.5007 17.078C13.0769 17.078 11.9229 15.9238 11.9229 14.5002C11.9229 13.0764 13.0769 11.9224 14.5007 11.9224Z" fill="black"/>
</svg>
