<svg width="108" height="89" viewBox="0 0 108 89" fill="none" xmlns="http://www.w3.org/2000/svg">
<path d="M10.9685 40.5301V37.7096H3.10776V12.8154H0.0609436V40.5301H11.0295H10.9685ZM16.3309 25.0785V15.6359H24.6183V12.8154H13.2841V40.5301H24.6183V37.7096H16.3309V27.8378H23.0339V25.0785H16.3309ZM34.429 40.5301V15.6359H39.4867V12.8154H26.3245V15.6359H31.3822V40.5301H34.429ZM53.5021 12.5088C49.3584 12.5088 47.4084 15.1454 47.4084 19.4375C47.4084 27.2246 56.6098 27.8378 56.6098 34.0307C56.6098 36.5446 55.5739 38.0162 53.3802 38.0162C51.1865 38.0162 50.1506 36.5446 50.1506 34.0307V32.3138H47.2866V33.908C47.2866 38.0775 49.2365 40.8367 53.4411 40.8367C57.6457 40.8367 59.6566 38.0775 59.6566 33.908C59.6566 26.1209 50.3943 25.5078 50.3943 19.3149C50.3943 16.8622 51.3693 15.3906 53.563 15.3906C55.7567 15.3906 56.7317 16.8622 56.7317 19.3762V20.2959H59.6566V19.5601C59.6566 15.3906 57.7067 12.6314 53.5021 12.6314V12.5088Z" fill="black"/>
<path d="M10.1764 44.73H0V89.0001H6.8858V72.3834H10.1764C17.0622 72.3834 20.4746 68.5205 20.4746 61.4692V55.7055C20.4746 48.6542 17.0622 44.7913 10.1764 44.7913V44.73ZM10.1764 51.0455C12.3701 51.0455 13.5888 52.0266 13.5888 55.215V61.8371C13.5888 65.0255 12.3701 66.0066 10.1764 66.0066H6.8858V51.0455H10.1764ZM45.4585 89.0001C44.7882 87.3445 44.7272 85.7503 44.7272 83.6043V76.7982C44.7272 72.1995 43.5694 68.8271 40.157 67.3555C43.2648 65.884 44.6663 62.9408 44.6663 58.4034V54.9084C44.6663 48.1024 41.5585 44.73 34.429 44.73H24.0089V89.0001H30.8947V70.9732H33.2712C36.4399 70.9732 37.7805 72.5061 37.7805 76.6142V83.5429C37.7805 87.1606 38.0242 87.8351 38.3899 89.0001H45.3975H45.4585ZM34.1852 51.0455C36.6227 51.0455 37.7196 52.4558 37.7196 55.5829V59.9363C37.7196 63.4926 36.1352 64.5963 33.5759 64.5963H30.8947V50.9842H34.2462L34.1852 51.0455ZM49.1756 89.0001H56.0614V44.73H49.1756V89.0001ZM75.8657 89.0001H82.9343V44.73H76.7797V71.2184L69.7111 44.73H61.0582V89.0001H67.2736V56.9318L75.8657 89.0001ZM85.9202 51.0455H93.1716V89.0001H100.057V51.0455H107.309V44.73H85.9202V51.0455Z" fill="black"/>
<path fill-rule="evenodd" clip-rule="evenodd" d="M42.5335 13.1829L49.1146 6.62212L42.5335 0V13.1829Z" fill="#70FF00"/>
</svg>
