<svg width="72" height="60" viewBox="0 0 72 60" fill="none" xmlns="http://www.w3.org/2000/svg">
<path d="M7.35528 27.1835V25.2921H2.084V8.5985H0.040863V27.1835H7.39614H7.35528ZM10.9512 16.8219V10.4899H16.5085V8.5985H8.90806V27.1835H16.5085V25.2921H10.9512V18.6722H15.4461V16.8219H10.9512ZM23.0874 27.1835V10.4899H26.479V8.5985H17.6527V10.4899H21.0443V27.1835H23.0874ZM35.8774 8.39291C33.0988 8.39291 31.7911 10.161 31.7911 13.0392C31.7911 18.261 37.9614 18.6722 37.9614 22.8251C37.9614 24.5109 37.2667 25.4977 35.7957 25.4977C34.3246 25.4977 33.63 24.5109 33.63 22.8251V21.6738H31.7094V22.7428C31.7094 25.5388 33.017 27.3891 35.8366 27.3891C38.6561 27.3891 40.0045 25.5388 40.0045 22.7428C40.0045 17.5209 33.7934 17.1098 33.7934 12.9569C33.7934 11.3122 34.4472 10.3254 35.9183 10.3254C37.3893 10.3254 38.0431 11.3122 38.0431 12.998V13.6148H40.0045V13.1214C40.0045 10.3254 38.6969 8.47515 35.8774 8.47515V8.39291Z" fill="white"/>
<path d="M6.82406 30H0V59.6866H4.61748V48.5439H6.82406C11.4415 48.5439 13.7299 45.9535 13.7299 41.225V37.36C13.7299 32.6315 11.4415 30.0411 6.82406 30.0411V30ZM6.82406 34.2351C8.29512 34.2351 9.11237 34.8929 9.11237 37.031V41.4717C9.11237 43.6098 8.29512 44.2677 6.82406 44.2677H4.61748V34.2351H6.82406ZM30.4835 59.6866C30.0341 58.5765 29.9932 57.5074 29.9932 56.0683V51.5043C29.9932 48.4205 29.2168 46.1591 26.9285 45.1723C29.0125 44.1854 29.9523 42.2118 29.9523 39.1691V36.8255C29.9523 32.2614 27.8683 30 23.0874 30H16.0999V59.6866H20.7174V47.5982H22.311C24.4359 47.5982 25.3348 48.6261 25.3348 51.381V56.0272C25.3348 58.4531 25.4983 58.9054 25.7435 59.6866H30.4427H30.4835ZM22.924 34.2351C24.5585 34.2351 25.294 35.1808 25.294 37.2778V40.1971C25.294 42.5819 24.2316 43.322 22.5153 43.322H20.7174V34.194H22.9648L22.924 34.2351ZM32.9762 59.6866H37.5936V30H32.9762V59.6866ZM50.874 59.6866H55.6141V30H51.487V47.7626L46.7469 30H40.9444V59.6866H45.1124V38.1823L50.874 59.6866ZM57.6164 34.2351H62.479V59.6866H67.0965V34.2351H71.9591V30H57.6164V34.2351Z" fill="white"/>
<path fill-rule="evenodd" clip-rule="evenodd" d="M28.5221 8.84521L32.9353 4.44567L28.5221 0.00500488V8.84521Z" fill="#70FF00"/>
</svg>
