<svg width="31" height="29" viewBox="0 0 31 29" fill="none" xmlns="http://www.w3.org/2000/svg">
<g id="Mail_ru_black">
<g id="Mail.ru">
<path id="Combined Shape" fill-rule="evenodd" clip-rule="evenodd" d="M15.0577 0C6.74156 0 0 6.49187 0 14.5C0 22.5081 6.74156 29 15.0577 29C23.3738 29 30.1154 22.5081 30.1154 14.5C30.1154 6.49187 23.3738 0 15.0577 0ZM6.27402 14.476C6.27402 9.82527 10.2143 6.04165 15.0576 6.04165C19.9008 6.04165 23.8411 9.82527 23.8411 14.476C23.8411 15.1348 23.784 15.6682 23.6561 16.2035L23.6542 16.2124C23.6539 16.214 23.5904 16.4608 23.5554 16.5685C23.3383 17.2351 22.9453 17.7904 22.4187 18.1742C21.9081 18.5465 21.2749 18.7516 20.636 18.7516C20.557 18.7516 20.4775 18.7485 20.3997 18.7425C19.4923 18.6725 18.6945 18.214 18.2053 17.4829C17.3638 18.2953 16.2475 18.7423 15.0576 18.7423C12.6078 18.7423 10.6147 16.8285 10.6147 14.476C10.6147 12.1236 12.6078 10.2098 15.0576 10.2098C17.5074 10.2098 19.5004 12.1236 19.5004 14.476V15.8513C19.5041 16.6537 20.0649 16.9817 20.544 17.0188C21.0206 17.0541 21.6549 16.7875 21.8759 15.9174C21.9849 15.4402 22.0403 14.9551 22.0403 14.476C22.0403 10.7787 18.9078 7.77085 15.0576 7.77085C11.2073 7.77085 8.07486 10.7787 8.07486 14.476C8.07486 18.1732 11.2073 21.1812 15.0576 21.1812C16.3978 21.1812 17.7013 20.8136 18.8271 20.1182L18.8472 20.1057L20.0305 21.4267L20.0052 21.4434C18.5428 22.4031 16.832 22.9104 15.0576 22.9104C10.2143 22.9104 6.27402 19.1267 6.27402 14.476Z" fill="black"/>
<path id="Fill-5-path" fill-rule="evenodd" clip-rule="evenodd" d="M17.6996 14.4759C17.6996 15.8749 16.5144 17.013 15.0576 17.013C13.6007 17.013 12.4155 15.8749 12.4155 14.4759C12.4155 13.077 13.6007 11.939 15.0576 11.939C16.5144 11.939 17.6996 13.077 17.6996 14.4759Z" fill="black"/>
</g>
</g>
</svg>
