<svg width="78" height="78" viewBox="0 0 78 78" fill="none" xmlns="http://www.w3.org/2000/svg">
<g id="24 / basic / pencil-create">
<path id="icon" fill-rule="evenodd" clip-rule="evenodd" d="M53.4214 6.5C55.5493 6.5 57.5891 7.34961 59.0788 8.85112L69.1568 18.929C70.6572 20.4295 71.5002 22.4645 71.5002 24.5865C71.5002 26.7085 70.6572 28.7435 69.1568 30.244L32.3619 67.0272C30.0918 69.6459 26.8739 71.2547 23.1875 71.5076H6.5V68.2576L6.51055 54.5587C6.78742 51.1317 8.38067 47.9451 10.8111 45.8036L47.76 8.85504C49.2583 7.3477 51.2959 6.5 53.4214 6.5ZM22.9579 65.0157C24.6942 64.8928 26.3103 64.0847 27.6081 62.6003L52.1843 38.0241L39.9826 25.8219L15.2623 50.5362C13.9456 51.7008 13.131 53.33 13 54.8204V65.0096L22.9579 65.0157ZM44.5793 21.2262L56.7805 33.4279L64.5606 25.6478C64.842 25.3663 65.0002 24.9846 65.0002 24.5865C65.0002 24.1885 64.842 23.8067 64.5606 23.5252L54.4737 13.4383C54.1953 13.1578 53.8165 13 53.4214 13C53.0262 13 52.6474 13.1578 52.3691 13.4383L44.5793 21.2262Z" fill="black"/>
</g>
</svg>
