<svg width="81" height="81" viewBox="0 0 81 81" fill="none" xmlns="http://www.w3.org/2000/svg">
<g id="24 / various / rocket">
<path id="icon" fill-rule="evenodd" clip-rule="evenodd" d="M23.625 27V38.8125L10.125 48.9375V67.5L23.625 67.5C23.625 71.2279 26.6471 74.25 30.375 74.25H37.125V77.625H43.875V74.25H50.625C54.2625 74.25 57.228 71.3727 57.3697 67.77H71.28V49.2075L57.375 38.7787V27C57.375 16.3482 50.9167 3.375 40.5 3.375C30.0833 3.375 23.625 16.3482 23.625 27ZM43.875 67.5H50.625V27C50.625 19.5994 45.9085 10.125 40.5 10.125C35.0915 10.125 30.375 19.5994 30.375 27V33.75V67.5H37.125V47.25H43.875V67.5ZM16.875 52.3125L23.625 47.25V60.75H16.875V52.3125ZM57.375 60.75V47.25L64.125 52.3125V60.75H57.375ZM40.5 37.125C36.7721 37.125 33.75 34.1029 33.75 30.375C33.75 26.6471 36.7721 23.625 40.5 23.625C44.2279 23.625 47.25 26.6471 47.25 30.375C47.25 34.1029 44.2279 37.125 40.5 37.125Z" fill="black"/>
</g>
</svg>
