<svg width="90" height="90" viewBox="0 0 90 90" fill="none" xmlns="http://www.w3.org/2000/svg">
<g id="24 / time / watch">
<path id="icon" fill-rule="evenodd" clip-rule="evenodd" d="M56.25 3.75H33.75C32.0757 3.75 30.6042 4.85991 30.1443 6.4698L25.6975 22.0337C19.1566 27.5368 15 35.783 15 45C15 54.217 19.1566 62.4632 25.6975 67.9663L30.1443 83.5302C30.6042 85.1401 32.0757 86.25 33.75 86.25H56.25C57.9243 86.25 59.3958 85.1401 59.8557 83.5302L64.3025 67.9663C69.9422 63.2214 73.8093 56.4373 74.7679 48.75H78.75V41.25H74.7679C73.8093 33.5627 69.9422 26.7786 64.3025 22.0337L59.8557 6.4698C59.3958 4.85991 57.9243 3.75 56.25 3.75ZM45 15C48.4983 15 51.8567 15.5988 54.9784 16.6994L53.4214 11.25H36.5787L35.0217 16.6994C38.1433 15.5988 41.5017 15 45 15ZM36.5787 78.75L35.0217 73.3006C38.1433 74.4012 41.5017 75 45 75C48.4983 75 51.8567 74.4012 54.9784 73.3006L53.4214 78.75H36.5787ZM67.5 45C67.5 57.4264 57.4264 67.5 45 67.5C32.5736 67.5 22.5 57.4264 22.5 45C22.5 32.5736 32.5736 22.5 45 22.5C57.4264 22.5 67.5 32.5736 67.5 45ZM48.75 41.25H56.25V48.75H41.25V30H48.75V41.25Z" fill="black"/>
</g>
</svg>
