<svg width="31" height="29" viewBox="0 0 31 29" fill="none" xmlns="http://www.w3.org/2000/svg">
<path fill-rule="evenodd" clip-rule="evenodd" d="M0 14.5C0 22.5081 6.73231 29 15.037 29C23.3418 29 30.0741 22.5081 30.0741 14.5C30.0741 6.49187 23.3418 0 15.037 0C6.73231 0 0 6.49187 0 14.5ZM24.4741 13.9451C24.4721 18.6979 20.4625 22.5652 15.5326 22.5672H15.5289C14.0325 22.5667 12.562 22.2046 11.256 21.5177L6.51601 22.7167L7.78451 18.2488C7.00204 16.9412 6.5903 15.4579 6.59097 13.9383C6.59293 9.18438 10.6041 5.31669 15.5326 5.31669C17.9245 5.31768 20.1695 6.21561 21.8577 7.84537C23.5458 9.47506 24.475 11.6413 24.4741 13.9451Z" fill="black"/>
<path fill-rule="evenodd" clip-rule="evenodd" d="M8.66288 20.6682L11.4757 19.9567L11.7471 20.1121C12.8881 20.765 14.1961 21.1105 15.5297 21.111H15.5327C19.6289 21.111 22.9628 17.8961 22.9644 13.9446C22.9652 12.0297 22.1929 10.2292 20.7897 8.87457C19.3866 7.51997 17.5206 6.77361 15.5356 6.77295C11.4362 6.77295 8.1023 9.98752 8.10068 13.9387C8.1001 15.2929 8.49301 16.6116 9.23695 17.7526L9.41366 18.0237L8.66288 20.6682ZM19.7313 15.8013C19.8871 15.874 19.9924 15.923 20.0373 15.9953C20.0931 16.0852 20.0931 16.5165 19.907 17.0198C19.7208 17.5231 18.8282 17.9824 18.399 18.0442C18.0141 18.0997 17.527 18.1228 16.9918 17.9588C16.6673 17.8595 16.2512 17.727 15.7181 17.505C13.6236 16.6329 12.2082 14.6754 11.9407 14.3054C11.9219 14.2795 11.9088 14.2614 11.9015 14.252L11.8997 14.2496C11.7815 14.0975 10.9892 13.0782 10.9892 12.0233C10.9892 11.031 11.4947 10.5108 11.7274 10.2714C11.7434 10.255 11.758 10.2399 11.7712 10.2261C11.976 10.0104 12.218 9.95645 12.3669 9.95645C12.5159 9.95645 12.665 9.95778 12.7951 9.96409C12.8112 9.96486 12.8279 9.96477 12.8452 9.96467C12.9754 9.96394 13.1377 9.96302 13.2978 10.3339C13.3594 10.4766 13.4496 10.6882 13.5446 10.9114C13.7369 11.3627 13.9493 11.8614 13.9867 11.9336C14.0425 12.0414 14.0797 12.1672 14.0053 12.311C13.9941 12.3326 13.9838 12.3529 13.9739 12.3724C13.918 12.4825 13.8768 12.5635 13.7819 12.6704C13.7445 12.7124 13.706 12.7577 13.6674 12.803C13.5905 12.8933 13.5137 12.9835 13.4467 13.0478C13.3349 13.1553 13.2185 13.2718 13.3488 13.4875C13.4791 13.7032 13.9275 14.4087 14.5917 14.9799C15.3056 15.594 15.9262 15.8536 16.2407 15.9851C16.3021 16.0108 16.3519 16.0316 16.3884 16.0492C16.6117 16.1571 16.742 16.1391 16.8724 15.9953C17.0027 15.8515 17.4309 15.3662 17.5798 15.1506C17.7287 14.935 17.8777 14.9709 18.0825 15.0428C18.2873 15.1147 19.3857 15.6358 19.6091 15.7437C19.6527 15.7647 19.6935 15.7837 19.7313 15.8013Z" fill="black"/>
</svg>
